<svg width="44" height="43" viewBox="0 0 44 43" fill="none" xmlns="http://www.w3.org/2000/svg">
<path d="M28.2738 8.88941C26.3228 7.43963 24.0094 6.6759 21.5918 6.6759C19.1734 6.6759 16.8601 7.43963 14.9096 8.88941C12.9588 10.3395 11.5352 12.3412 10.799 14.6779C9.30997 19.4293 11.0187 24.5821 15.0635 27.4874C15.5797 27.8608 15.8875 28.4627 15.8875 29.1046V30.058C15.8875 31.0338 16.6678 31.8256 17.6296 31.8256L26.3505 31.831C26.6803 31.8703 26.9333 32.1546 26.9333 32.4893C26.9333 32.8237 26.6803 33.1083 26.3505 33.147L18.7064 33.1532C18.701 33.1532 18.6956 33.1532 18.6846 33.1532C18.6792 33.1532 18.6739 33.1532 18.6626 33.1532C17.311 33.2146 16.2447 34.3351 16.2447 35.7126C16.2447 37.0896 17.3054 38.211 18.6626 38.2723H18.6956L24.96 38.3336C25.2901 38.3723 25.5428 38.6566 25.5428 38.9916C25.5428 39.3261 25.2901 39.6106 24.96 39.649L19.4211 39.6553C18.9043 39.6553 18.4869 40.0792 18.4869 40.603C18.4869 41.1272 18.9043 41.551 19.4211 41.551L25.0097 41.5456C25.032 41.5456 25.0591 41.5456 25.0811 41.5401H25.1082C26.4112 41.4284 27.4162 40.313 27.4162 38.9971C27.4162 37.6811 26.4165 36.5712 25.1308 36.4486C25.1249 36.4486 25.1195 36.4486 25.1195 36.4486C25.1141 36.4486 25.1029 36.4486 25.0975 36.4486C25.0865 36.4486 25.0755 36.4486 25.0645 36.4486C25.0537 36.4486 25.0427 36.4486 25.032 36.4486L18.745 36.3872C18.3988 36.3703 18.1243 36.0806 18.1243 35.7238C18.1243 35.3719 18.3935 35.0822 18.7397 35.0598L26.3996 35.0544C26.4219 35.0544 26.4493 35.0544 26.4716 35.0489H26.4987C27.7901 34.9317 28.7904 33.8164 28.7904 32.5005C28.7904 31.1845 27.7847 30.0689 26.4987 29.952C26.4934 29.952 26.488 29.952 26.488 29.952C26.4823 29.952 26.477 29.952 26.4716 29.952C26.4601 29.952 26.4493 29.952 26.4329 29.952C26.4219 29.952 26.4112 29.952 26.3942 29.952L17.7504 29.9465V29.1209C17.7504 27.8663 17.1458 26.6787 16.1349 25.9534C12.7555 23.5221 11.3266 19.2284 12.5682 15.2634C13.8215 11.2654 17.4429 8.57705 21.5806 8.57705C25.7187 8.57705 29.3399 11.2654 30.5926 15.2634C31.8458 19.2616 30.4226 23.578 27.0539 26.0038C26.6309 26.3048 26.532 26.8959 26.8342 27.3252C27.0155 27.5877 27.3067 27.727 27.5978 27.727C27.7847 27.727 27.9717 27.6711 28.1363 27.5539C30.1091 26.1322 31.5598 24.1523 32.3293 21.8273C33.0986 19.496 33.1149 17.0312 32.3785 14.6948C31.6479 12.3412 30.2246 10.3395 28.2738 8.88941Z" fill="black"/>
<path d="M8.59016 17.4161H5.62276C5.19973 17.4161 4.85352 17.7675 4.85352 18.1968C4.85352 18.6261 5.19973 18.9774 5.62276 18.9774H8.59016C9.01319 18.9774 9.3594 18.6261 9.3594 18.1968C9.3594 17.762 9.01856 17.4161 8.59016 17.4161Z" fill="black"/>
<path d="M21.5644 5.81109C21.9872 5.81109 22.3337 5.45976 22.3337 5.03047V2.01943C22.3337 1.58986 21.9872 1.23853 21.5644 1.23853C21.1411 1.23853 20.7949 1.58986 20.7949 2.01943V5.03047C20.7949 5.46548 21.1355 5.81109 21.5644 5.81109Z" fill="black"/>
<path d="M12.3925 9.67014C12.5845 9.67014 12.7825 9.59791 12.931 9.44718C13.2329 9.14627 13.2388 8.64938 12.942 8.34329L10.8591 6.17394C10.5623 5.86703 10.0735 5.86158 9.77104 6.16304C9.46887 6.46368 9.4635 6.96002 9.76029 7.26693L11.8429 9.43628C11.9966 9.59219 12.1945 9.67014 12.3925 9.67014Z" fill="black"/>
<path d="M32.3178 6.17931L30.2351 8.34866C29.938 8.65557 29.9434 9.15164 30.2458 9.45283C30.3941 9.60328 30.5921 9.67551 30.7846 9.67551C30.9826 9.67551 31.1859 9.59783 31.3342 9.44165L33.4168 7.27257C33.7134 6.96566 33.708 6.46959 33.4058 6.16841C33.098 5.8615 32.6146 5.8724 32.3178 6.17931Z" fill="black"/>
<path d="M37.5544 17.4161H34.5319C34.1089 17.4161 33.7627 17.7675 33.7627 18.1968C33.7627 18.6261 34.1089 18.9774 34.5319 18.9774H37.5544C37.9774 18.9774 38.3236 18.6261 38.3236 18.1968C38.3236 17.762 37.9774 17.4161 37.5544 17.4161Z" fill="black"/>
</svg>
