<svg width="35" height="35" viewBox="0 0 35 35" fill="none" xmlns="http://www.w3.org/2000/svg">
<path d="M17.3864 34.9866C17.2645 34.9866 17.1476 34.9463 17.0614 34.8744C16.9752 34.8026 16.9268 34.7051 16.9268 34.6035C16.9268 34.5019 16.9752 34.4044 17.0614 34.3325C17.1476 34.2607 17.2645 34.2203 17.3864 34.2203C19.5129 34.2448 21.6241 33.9169 23.5972 33.2555C25.5704 32.5941 27.3662 31.6126 28.8803 30.3678C30.3945 29.1231 31.5968 27.6399 32.4174 26.0046C33.2381 24.3692 33.6607 22.6143 33.6607 20.8416C33.6607 19.069 33.2381 17.314 32.4174 15.6786C31.5968 14.0433 30.3945 12.5601 28.8803 11.3154C27.3662 10.0706 25.5704 9.08906 23.5972 8.42771C21.6241 7.76635 19.5129 7.43842 17.3864 7.46291C17.2645 7.46291 17.1476 7.42255 17.0614 7.35069C16.9752 7.27883 16.9268 7.18137 16.9268 7.07975C16.9268 6.97813 16.9752 6.88067 17.0614 6.80881C17.1476 6.73696 17.2645 6.69659 17.3864 6.69659C19.6342 6.67141 21.8656 7.01867 23.951 7.71823C26.0364 8.41779 27.9343 9.45568 29.5345 10.7717C31.1347 12.0877 32.4053 13.6555 33.2725 15.3842C34.1397 17.1128 34.5863 18.9679 34.5863 20.8416C34.5863 22.7153 34.1397 24.5704 33.2725 26.299C32.4053 28.0277 31.1347 29.5956 29.5345 30.9115C27.9343 32.2275 26.0364 33.2654 23.951 33.965C21.8656 34.6645 19.6342 35.0118 17.3864 34.9866Z" fill="#F1F45D"/>
<path d="M19.5653 31.0971C19.4434 31.1021 19.324 31.0667 19.2335 30.9984C19.143 30.9301 19.0887 30.8347 19.0826 30.7331C19.0765 30.6315 19.1191 30.532 19.201 30.4565C19.2829 30.3811 19.3974 30.3358 19.5193 30.3307C22.2625 30.0888 24.8035 29.0154 26.6597 27.3146C28.5159 25.6137 29.5578 23.4038 29.5877 21.1046C29.6176 18.8055 28.6333 16.5773 26.8218 14.8433C25.0102 13.1093 22.4977 11.9903 19.7614 11.6989C19.701 11.6927 19.6427 11.6767 19.5898 11.6517C19.5369 11.6267 19.4904 11.5932 19.453 11.5533C19.3774 11.4725 19.3434 11.3701 19.3584 11.2685C19.3734 11.1669 19.4363 11.0744 19.5332 11.0114C19.63 10.9484 19.7529 10.9201 19.8748 10.9326C22.8349 11.2475 25.553 12.4577 27.5129 14.3333C29.4728 16.2089 30.5378 18.6192 30.5057 21.1063C30.4735 23.5935 29.3464 25.9841 27.3385 27.8241C25.3306 29.6641 22.5818 30.8252 19.6143 31.0869L19.5653 31.0971Z" fill="#F1F45D"/>
<path d="M17.2975 28.2913C15.0498 28.3165 12.8184 27.9692 10.733 27.2697C8.64757 26.5701 6.74968 25.5322 5.14949 24.2162C3.5493 22.9002 2.2787 21.3324 1.41147 19.6037C0.54424 17.8751 0.0976563 16.02 0.0976562 14.1463C0.0976563 12.2726 0.54424 10.4175 1.41147 8.68885C2.2787 6.96018 3.5493 5.39234 5.14949 4.07635C6.74968 2.76037 8.64757 1.72247 10.733 1.02292C12.8184 0.323358 15.0498 -0.0239004 17.2975 0.00127735C17.4194 0.00127735 17.5364 0.0416437 17.6226 0.1135C17.7088 0.185357 17.7572 0.282818 17.7572 0.384438V22.3217C17.7572 22.4233 17.7088 22.5207 17.6226 22.5926C17.5364 22.6644 17.4194 22.7048 17.2975 22.7048C17.1756 22.7048 17.0587 22.6644 16.9725 22.5926C16.8863 22.5207 16.8378 22.4233 16.8378 22.3217V0.772682C12.6361 0.890038 8.65734 2.37665 5.75654 4.91299C2.85574 7.44934 1.26443 10.833 1.32464 14.3368C1.38485 17.8406 3.09175 21.1849 6.07851 23.6509C9.06527 26.117 13.0935 27.508 17.2975 27.525C17.4194 27.525 17.5364 27.5654 17.6226 27.6372C17.7088 27.7091 17.7572 27.8066 17.7572 27.9082C17.7572 28.0098 17.7088 28.1072 17.6226 28.1791C17.5364 28.2509 17.4194 28.2913 17.2975 28.2913Z" fill="#F1F45D"/>
<path d="M17.2982 26.3215C17.0118 26.322 16.7318 26.2517 16.4934 26.1194C16.2551 25.9871 16.0692 25.7988 15.9593 25.5784C15.8495 25.358 15.8206 25.1154 15.8763 24.8812C15.932 24.6471 16.0698 24.4321 16.2723 24.2633C16.4748 24.0945 16.7328 23.9796 17.0137 23.9332C17.2946 23.8868 17.5857 23.9109 17.8501 24.0024C18.1145 24.094 18.3404 24.2489 18.4991 24.4476C18.6578 24.6463 18.7422 24.8797 18.7416 25.1184C18.7408 25.4373 18.5885 25.7429 18.318 25.9684C18.0474 26.1939 17.6808 26.3209 17.2982 26.3215ZM17.2982 24.679C17.1938 24.6785 17.0916 24.7039 17.0045 24.7518C16.9174 24.7998 16.8494 24.8682 16.809 24.9485C16.7687 25.0287 16.7578 25.1172 16.7778 25.2025C16.7978 25.2879 16.8477 25.3664 16.9213 25.4281C16.9949 25.4898 17.0888 25.532 17.1912 25.5491C17.2935 25.5663 17.3996 25.5577 17.4961 25.5246C17.5926 25.4914 17.6751 25.4351 17.7332 25.3628C17.7912 25.2905 17.8222 25.2054 17.8222 25.1184C17.8226 25.0608 17.8094 25.0038 17.7832 24.9505C17.7571 24.8972 17.7185 24.8487 17.6698 24.8079C17.6211 24.767 17.5632 24.7346 17.4995 24.7125C17.4357 24.6904 17.3673 24.679 17.2982 24.679Z" fill="#F1F45D"/>
<path d="M17.3861 34.9671C17.2643 34.9671 17.1474 34.9268 17.0613 34.8549C16.9752 34.7831 16.9268 34.6856 16.9268 34.584V27.848C16.9268 27.7464 16.9752 27.6489 17.0613 27.5771C17.1474 27.5052 17.2643 27.4648 17.3861 27.4648C17.508 27.4648 17.6248 27.5052 17.7109 27.5771C17.7971 27.6489 17.8455 27.7464 17.8455 27.848V34.584C17.8455 34.6856 17.7971 34.7831 17.7109 34.8549C17.6248 34.9268 17.508 34.9671 17.3861 34.9671Z" fill="#F1F45D"/>
</svg>
