<svg width="31" height="30" viewBox="0 0 31 30" fill="none" xmlns="http://www.w3.org/2000/svg">
<path d="M23.8039 30.0011H1.33722C1.23069 30.0011 1.12852 29.9588 1.05319 29.8836C0.977865 29.8084 0.935547 29.7063 0.935547 29.6V7.11989C0.935547 7.0135 0.977865 6.91147 1.05319 6.83624C1.12852 6.76101 1.23069 6.71875 1.33722 6.71875H23.8039C23.9105 6.71875 24.0126 6.76101 24.0879 6.83624C24.1633 6.91147 24.2056 7.0135 24.2056 7.11989V29.6C24.2056 29.7063 24.1633 29.8084 24.0879 29.8836C24.0126 29.9588 23.9105 30.0011 23.8039 30.0011ZM1.73889 29.1988H23.4023V7.51836H1.73889V29.1988Z" fill="#F1F45D"/>
<path d="M30.1086 23.2957H7.64187C7.53534 23.2957 7.43318 23.2535 7.35785 23.1782C7.28252 23.103 7.2402 23.001 7.2402 22.8946V15.1579C7.2402 15.0515 7.28252 14.9494 7.35785 14.8742C7.43318 14.799 7.53534 14.7567 7.64187 14.7567H13.3616C13.4682 14.7567 13.5703 14.799 13.6457 14.8742C13.721 14.9494 13.7633 15.0515 13.7633 15.1579C13.7633 15.2643 13.721 15.3663 13.6457 15.4415C13.5703 15.5167 13.4682 15.559 13.3616 15.559H8.04354V22.4934H29.6962V0.802286H8.03283V7.11896C8.03283 7.22534 7.99051 7.32738 7.91518 7.40261C7.83986 7.47784 7.73769 7.5201 7.63116 7.5201C7.52463 7.5201 7.42246 7.47784 7.34714 7.40261C7.27181 7.32738 7.22949 7.22534 7.22949 7.11896V0.401143C7.22949 0.294753 7.27181 0.192721 7.34714 0.117492C7.42246 0.0422629 7.52463 0 7.63116 0H30.0979C30.2044 0 30.3066 0.0422629 30.3819 0.117492C30.4572 0.192721 30.4995 0.294753 30.4995 0.401143V22.8839C30.5017 22.9901 30.4619 23.0929 30.3887 23.17C30.3155 23.247 30.2149 23.2922 30.1086 23.2957Z" fill="#F1F45D"/>
<path d="M16.0742 16.4287C15.822 16.4293 15.5753 16.3551 15.3653 16.2155C15.1553 16.0759 14.9916 15.8773 14.8947 15.6448C14.7978 15.4122 14.7722 15.1562 14.821 14.9091C14.8699 14.662 14.9911 14.4349 15.1693 14.2566C15.3474 14.0783 15.5745 13.9568 15.8219 13.9075C16.0692 13.8581 16.3256 13.8832 16.5587 13.9795C16.7917 14.0757 16.991 14.2389 17.1311 14.4483C17.2713 14.6577 17.3461 14.9039 17.3461 15.1558C17.3461 15.4929 17.2122 15.8163 16.9738 16.0549C16.7353 16.2936 16.4118 16.428 16.0742 16.4287ZM16.0742 14.6878C15.9807 14.6872 15.8893 14.7145 15.8113 14.766C15.7334 14.8175 15.6726 14.891 15.6366 14.9771C15.6006 15.0632 15.591 15.1581 15.6091 15.2496C15.6272 15.3412 15.6722 15.4253 15.7383 15.4913C15.8043 15.5572 15.8886 15.6021 15.9802 15.6202C16.0719 15.6383 16.1669 15.6287 16.2531 15.5928C16.3393 15.5568 16.4129 15.4961 16.4645 15.4183C16.5161 15.3405 16.5433 15.2491 16.5428 15.1558C16.5421 15.0319 16.4925 14.9132 16.4048 14.8256C16.317 14.738 16.1983 14.6885 16.0742 14.6878Z" fill="#F1F45D"/>
</svg>
