<svg width="65" height="65" viewBox="0 0 65 65" fill="none" xmlns="http://www.w3.org/2000/svg">
<path d="M21.9628 64.9804C18.0581 64.9807 14.2272 63.978 10.8828 62.0802C7.53844 60.1823 4.80724 57.4612 2.98335 54.21C1.15946 50.9588 0.311986 47.3007 0.532218 43.6296C0.752449 39.9585 2.03203 36.4135 4.23316 33.3764C4.29154 33.297 4.36595 33.2292 4.45215 33.1768C4.53836 33.1245 4.63466 33.0887 4.73557 33.0714C4.83647 33.0541 4.94 33.0558 5.04025 33.0762C5.14049 33.0966 5.2355 33.1354 5.31982 33.1904C5.40415 33.2453 5.47615 33.3154 5.53171 33.3965C5.58728 33.4777 5.62532 33.5684 5.64367 33.6635C5.66201 33.7585 5.66029 33.8559 5.63862 33.9503C5.61696 34.0447 5.57578 34.1342 5.5174 34.2136C3.59201 36.8187 2.4019 39.8422 2.05906 42.9997C1.71623 46.1572 2.23192 49.3449 3.55761 52.2631C4.88329 55.1812 6.9754 57.7339 9.6372 59.681C12.299 61.6281 15.443 62.9056 18.7735 63.3935C22.104 63.8813 25.5115 63.5634 28.6756 62.4696C31.8397 61.3758 34.6563 59.5422 36.8606 57.1411C39.0649 54.74 40.5845 51.8504 41.2763 48.744C41.9681 45.6377 41.8095 42.4166 40.8154 39.3839H23.4861C23.3833 39.384 23.2814 39.3645 23.1867 39.3266C23.092 39.2888 23.0064 39.2333 22.935 39.1635C22.7887 39.0259 22.7064 38.8393 22.7063 38.6446L22.779 25.4987C22.7809 25.3974 22.8044 25.2975 22.8482 25.2049C22.892 25.1124 22.9551 25.0291 23.0338 24.9601C23.113 24.8925 23.2058 24.8408 23.3068 24.808C23.4078 24.7751 23.5148 24.762 23.6213 24.7692C28.6795 25.1497 33.4221 27.2358 36.9783 30.6444C39.1713 32.7088 40.8634 35.1958 41.9384 37.9346H62.9903V1.46882H24.266V12.0688C24.266 12.2636 24.1839 12.4504 24.0376 12.5881C23.8914 12.7258 23.693 12.8032 23.4861 12.8032C23.2793 12.8032 23.0809 12.7258 22.9347 12.5881C22.7884 12.4504 22.7063 12.2636 22.7063 12.0688V0.734408C22.7063 0.539631 22.7884 0.352827 22.9347 0.215099C23.0809 0.0773706 23.2793 0 23.4861 0H63.7702C63.9767 0.00128308 64.1742 0.0790821 64.3202 0.216533C64.4662 0.353984 64.5488 0.540027 64.5501 0.734408V38.669C64.5488 38.8634 64.4662 39.0495 64.3202 39.1869C64.1742 39.3244 63.9767 39.4021 63.7702 39.4034H42.4531C43.3675 42.3904 43.5316 45.5368 42.9325 48.5938C42.3333 51.6508 40.9872 54.5347 39.0007 57.0175C37.0142 59.5003 34.4417 61.514 31.4864 62.8994C28.5312 64.2848 25.2743 65.0039 21.9731 65L21.9628 64.9804ZM24.2712 37.9151H40.2642C39.2655 35.5718 37.7707 33.4445 35.8709 31.6628C32.7789 28.7047 28.714 26.8201 24.3388 26.3163L24.2712 37.9151Z" fill="#1C3F39"/>
<path d="M23.5756 21.5159C22.9586 21.5159 22.3555 21.3436 21.8425 21.0208C21.3295 20.698 20.9296 20.2392 20.6935 19.7024C20.4574 19.1656 20.3956 18.575 20.516 18.0052C20.6364 17.4353 20.9335 16.9119 21.3698 16.501C21.806 16.0902 22.3619 15.8104 22.967 15.6971C23.5722 15.5837 24.1994 15.6419 24.7694 15.8642C25.3395 16.0866 25.8267 16.4631 26.1695 16.9462C26.5122 17.4293 26.6952 17.9973 26.6952 18.5783C26.6952 19.3574 26.3665 20.1045 25.7815 20.6555C25.1965 21.2064 24.403 21.5159 23.5756 21.5159ZM23.5756 17.1095C23.2671 17.1095 22.9656 17.1956 22.7091 17.357C22.4526 17.5184 22.2526 17.7478 22.1346 18.0162C22.0165 18.2846 21.9856 18.5799 22.0458 18.8648C22.106 19.1497 22.2545 19.4115 22.4727 19.6169C22.6908 19.8223 22.9688 19.9622 23.2713 20.0188C23.5739 20.0755 23.8875 20.0464 24.1725 19.9353C24.4576 19.8241 24.7011 19.6358 24.8725 19.3943C25.0439 19.1527 25.1354 18.8688 25.1354 18.5783C25.1354 18.1887 24.9711 17.8151 24.6786 17.5397C24.3861 17.2642 23.9893 17.1095 23.5756 17.1095Z" fill="#1C3F39"/>
</svg>
