<svg width="65" height="65" viewBox="0 0 65 65" fill="none" xmlns="http://www.w3.org/2000/svg">
<path d="M50.5015 64.999H1.82437C1.59356 64.999 1.3722 64.9074 1.209 64.7444C1.04579 64.5815 0.954102 64.3604 0.954102 64.1299V15.4238C0.954102 15.1933 1.04579 14.9722 1.209 14.8092C1.3722 14.6463 1.59356 14.5547 1.82437 14.5547H50.5015C50.7323 14.5547 50.9537 14.6463 51.1169 14.8092C51.2801 14.9722 51.3718 15.1933 51.3718 15.4238V64.1299C51.3718 64.3604 51.2801 64.5815 51.1169 64.7444C50.9537 64.9074 50.7323 64.999 50.5015 64.999ZM2.69464 63.2608H49.6312V16.2872H2.69464V63.2608Z" fill="#1C3F39"/>
<path d="M64.1585 50.4733H15.4814C15.2506 50.4733 15.0292 50.3817 14.866 50.2187C14.7028 50.0557 14.6111 49.8347 14.6111 49.6042V32.8415C14.6111 32.611 14.7028 32.39 14.866 32.227C15.0292 32.064 15.2506 31.9724 15.4814 31.9724H27.874C28.1048 31.9724 28.3262 32.064 28.4894 32.227C28.6526 32.39 28.7443 32.611 28.7443 32.8415C28.7443 33.072 28.6526 33.2931 28.4894 33.4561C28.3262 33.6191 28.1048 33.7107 27.874 33.7107H16.3516V48.735H63.265V1.73826H16.3284V15.4242C16.3284 15.6547 16.2367 15.8757 16.0735 16.0387C15.9103 16.2017 15.689 16.2933 15.4582 16.2933C15.2274 16.2933 15.006 16.2017 14.8428 16.0387C14.6796 15.8757 14.5879 15.6547 14.5879 15.4242V0.86913C14.5879 0.638623 14.6796 0.417555 14.8428 0.254562C15.006 0.0915682 15.2274 0 15.4582 0H64.1353C64.3661 0 64.5874 0.0915682 64.7507 0.254562C64.9139 0.417555 65.0056 0.638623 65.0056 0.86913V49.581C65.0103 49.8111 64.924 50.0338 64.7654 50.2008C64.6069 50.3678 64.3888 50.4657 64.1585 50.4733Z" fill="#1C3F39"/>
<path d="M33.7538 35.5981C33.2073 35.5993 32.6728 35.4385 32.2179 35.1361C31.763 34.8337 31.4081 34.4034 31.1982 33.8995C30.9883 33.3957 30.9328 32.841 31.0387 32.3056C31.1446 31.7702 31.4072 31.2782 31.7932 30.8919C32.1791 30.5056 32.6712 30.2423 33.2071 30.1355C33.7429 30.0286 34.2985 30.0828 34.8035 30.2914C35.3085 30.5 35.7401 30.8535 36.0438 31.3072C36.3475 31.7609 36.5097 32.2943 36.5097 32.8401C36.5097 33.5705 36.2195 34.2712 35.7028 34.7882C35.1862 35.3053 34.4852 35.5966 33.7538 35.5981ZM33.7538 31.8261C33.5513 31.8249 33.3531 31.8839 33.1843 31.9955C33.0155 32.1071 32.8837 32.2663 32.8057 32.4529C32.7277 32.6395 32.707 32.845 32.7462 33.0434C32.7854 33.2417 32.8828 33.424 33.026 33.5669C33.1691 33.7099 33.3516 33.8071 33.5502 33.8463C33.7488 33.8855 33.9546 33.8648 34.1414 33.7869C34.3283 33.709 34.4877 33.5774 34.5994 33.4088C34.7112 33.2402 34.7703 33.0423 34.7691 32.8401C34.7676 32.5716 34.6601 32.3146 34.47 32.1248C34.28 31.9349 34.0226 31.8276 33.7538 31.8261Z" fill="#1C3F39"/>
</svg>
