<svg width="37" height="37" viewBox="0 0 37 37" fill="none" xmlns="http://www.w3.org/2000/svg">
<path d="M18.4256 36.9989C18.3048 36.9982 18.1891 36.956 18.1032 36.8811L0.313431 21.2245C0.270755 21.1875 0.23687 21.1433 0.213745 21.0946C0.190619 21.0459 0.178711 20.9936 0.178711 20.9408C0.178711 20.888 0.190619 20.8358 0.213745 20.7871C0.23687 20.7383 0.270755 20.6942 0.313431 20.6571L18.0697 5.03261C18.1119 4.99506 18.1621 4.96522 18.2175 4.94488C18.2728 4.92453 18.3322 4.91406 18.3922 4.91406C18.4522 4.91406 18.5116 4.92453 18.5669 4.94488C18.6223 4.96522 18.6725 4.99506 18.7146 5.03261L29.2035 14.2622C29.2891 14.3378 29.3369 14.4402 29.3367 14.5469C29.3364 14.6535 29.2879 14.7558 29.202 14.831C29.1161 14.9063 28.9997 14.9484 28.8785 14.9482C28.7573 14.9479 28.6411 14.9053 28.5556 14.8297L18.3922 5.88381L1.2808 20.9408L18.4256 36.0299L35.537 20.9729L33.3285 19.0296C33.2438 18.9539 33.1963 18.852 33.1963 18.7458C33.1963 18.6396 33.2438 18.5377 33.3285 18.4621C33.3707 18.4245 33.4209 18.3947 33.4763 18.3744C33.5316 18.354 33.591 18.3436 33.651 18.3436C33.711 18.3436 33.7704 18.354 33.8257 18.3744C33.8811 18.3947 33.9313 18.4245 33.9734 18.4621L36.5044 20.6892C36.5471 20.7263 36.581 20.7705 36.6041 20.8192C36.6272 20.8679 36.6391 20.9201 36.6391 20.9729C36.6391 21.0257 36.6272 21.078 36.6041 21.1267C36.581 21.1754 36.5471 21.2196 36.5044 21.2567L18.7481 36.8811C18.6626 36.9564 18.5466 36.9988 18.4256 36.9989Z" fill="#F1F45D"/>
<path d="M18.4256 32.0822C18.3049 32.0812 18.1892 32.039 18.1032 31.9644L5.00423 20.4381C4.91952 20.3625 4.87203 20.2606 4.87203 20.1544C4.87203 20.0482 4.91952 19.9463 5.00423 19.8706C5.04639 19.8331 5.0966 19.8033 5.15195 19.7829C5.20731 19.7626 5.2667 19.7521 5.32669 19.7521C5.38668 19.7521 5.44607 19.7626 5.50142 19.7829C5.55677 19.8033 5.60698 19.8331 5.64914 19.8706L18.4256 31.1132L35.537 16.0562L18.3922 0.969751L1.28079 16.0267L3.47409 17.9541C3.51664 17.9913 3.55043 18.0356 3.57353 18.0843C3.59663 18.1331 3.60859 18.1853 3.60874 18.2382C3.60888 18.291 3.59719 18.3433 3.57435 18.3922C3.55151 18.441 3.51796 18.4854 3.47561 18.5229C3.43327 18.5603 3.38296 18.59 3.32756 18.6104C3.27215 18.6307 3.21274 18.6412 3.15271 18.6414C3.09269 18.6415 3.03322 18.6312 2.97771 18.6111C2.9222 18.591 2.87173 18.5615 2.82918 18.5242L0.313431 16.3105C0.270755 16.2734 0.23687 16.2292 0.213745 16.1805C0.190619 16.1318 0.178711 16.0795 0.178711 16.0267C0.178711 15.974 0.190619 15.9217 0.213745 15.873C0.23687 15.8243 0.270755 15.7801 0.313431 15.743L18.0697 0.118548C18.1119 0.0809948 18.1621 0.0511625 18.2174 0.0308132C18.2728 0.010464 18.3322 0 18.3922 0C18.4522 0 18.5116 0.010464 18.5669 0.0308132C18.6223 0.0511625 18.6725 0.0809948 18.7146 0.118548L36.5044 15.7725C36.5898 15.8477 36.6378 15.9498 36.6378 16.0562C36.6378 16.1626 36.5898 16.2646 36.5044 16.3399L18.7481 31.9644C18.7059 32.0018 18.6556 32.0315 18.6003 32.0517C18.5449 32.0719 18.4856 32.0823 18.4256 32.0822Z" fill="#F1F45D"/>
<path d="M18.3784 20.1223C17.9561 20.1214 17.5473 19.9917 17.2216 19.7553C16.8959 19.519 16.6733 19.1905 16.5919 18.826C16.5105 18.4614 16.5752 18.0833 16.775 17.756C16.9749 17.4288 17.2975 17.1726 17.6879 17.0311C18.0783 16.8897 18.5124 16.8717 18.9162 16.9803C19.32 17.0888 19.6685 17.3172 19.9024 17.6265C20.1363 17.9358 20.2411 18.3069 20.1989 18.6765C20.1568 19.0462 19.9703 19.3916 19.6712 19.6538C19.5013 19.8029 19.2996 19.9209 19.0778 20.0013C18.8559 20.0817 18.6183 20.1228 18.3784 20.1223ZM18.3784 17.7132C18.1364 17.7134 17.9044 17.7981 17.7334 17.9487C17.5842 18.0802 17.4915 18.2531 17.4709 18.438C17.4503 18.623 17.5033 18.8084 17.6207 18.9628C17.7381 19.1172 17.9128 19.231 18.1149 19.2848C18.317 19.3386 18.534 19.3291 18.729 19.2579C18.9241 19.1867 19.085 19.0581 19.1843 18.8942C19.2837 18.7303 19.3155 18.5411 19.2741 18.3589C19.2327 18.1767 19.1209 18.0128 18.9575 17.895C18.7942 17.7773 18.5895 17.713 18.3784 17.7132Z" fill="#F1F45D"/>
</svg>
