<svg width="62" height="65" viewBox="0 0 62 65" fill="none" xmlns="http://www.w3.org/2000/svg">
<path d="M30.8795 64.9985C30.745 65.0003 30.6122 64.9675 30.4935 64.9034L0.50369 49.0766C0.37065 49.0046 0.259343 48.8974 0.181644 48.7663C0.103945 48.6352 0.0627663 48.4852 0.0625 48.3322V16.6675C0.0627663 16.5145 0.103945 16.3645 0.181644 16.2334C0.259343 16.1023 0.37065 15.995 0.50369 15.9231L30.4935 0.0963259C30.6116 0.0331001 30.7432 0 30.8767 0C31.0103 0 31.1419 0.0331001 31.26 0.0963259L61.2443 15.9455C61.3787 16.0162 61.4915 16.123 61.5703 16.2542C61.649 16.3855 61.6908 16.5361 61.691 16.6898V48.3547C61.6908 48.5083 61.649 48.659 61.5703 48.7902C61.4915 48.9215 61.3787 49.0283 61.2443 49.099L31.26 64.9258C31.141 64.9815 31.0103 65.0065 30.8795 64.9985ZM1.71696 47.8454L30.8795 63.2356L60.0365 47.8454V17.1767L30.8795 1.7864L1.71696 17.1767V47.8454Z" fill="#1C3F39"/>
<path d="M0.889359 49.1696C0.703917 49.1704 0.523585 49.108 0.377315 48.9923C0.231046 48.8766 0.127322 48.7145 0.0827944 48.5318C0.0382667 48.3491 0.0555207 48.1565 0.131782 47.985C0.208044 47.8134 0.338892 47.6729 0.503321 47.5859L46.6571 23.2188C46.7539 23.1618 46.8611 23.1254 46.9722 23.1116C47.0833 23.0979 47.196 23.1072 47.3035 23.1389C47.4109 23.1706 47.5109 23.2242 47.5974 23.2963C47.6839 23.3684 47.755 23.4575 47.8066 23.5584C47.8581 23.6592 47.8889 23.7695 47.8972 23.8828C47.9055 23.9961 47.8911 24.1098 47.8547 24.2173C47.8184 24.3247 47.761 24.4236 47.686 24.5078C47.6109 24.5921 47.5198 24.66 47.4182 24.7075L1.26989 49.0689C1.15241 49.1318 1.02216 49.1663 0.889359 49.1696Z" fill="#1C3F39"/>
<path d="M60.8609 49.1743C60.7285 49.1727 60.5983 49.1402 60.4804 49.0792L30.9814 33.549C30.7869 33.4458 30.6407 33.2685 30.575 33.0559C30.5094 32.8434 30.5296 32.6131 30.6312 32.4157C30.7329 32.2183 30.9076 32.07 31.1171 32.0033C31.3265 31.9367 31.5534 31.9572 31.748 32.0604L61.2304 47.5906C61.3944 47.6774 61.525 47.8174 61.6013 47.9884C61.6777 48.1593 61.6954 48.3514 61.6516 48.5337C61.6077 48.7161 61.505 48.8783 61.3596 48.9944C61.2143 49.1105 61.0348 49.1739 60.8499 49.1743H60.8609Z" fill="#1C3F39"/>
<path d="M51.77 53.5164C51.6374 53.5168 51.5068 53.4841 51.3895 53.4213L21.9071 37.8911C21.8054 37.8436 21.7143 37.7757 21.6393 37.6914C21.5643 37.6071 21.5068 37.5083 21.4705 37.4009C21.4342 37.2935 21.4198 37.1797 21.428 37.0664C21.4363 36.9532 21.4672 36.8427 21.5187 36.7419C21.5703 36.6411 21.6414 36.552 21.7279 36.4799C21.8144 36.4078 21.9144 36.3543 22.0218 36.3225C22.1293 36.2908 22.242 36.2815 22.3531 36.2952C22.4642 36.309 22.5713 36.3455 22.6682 36.4025L52.1561 51.9327C52.3205 52.0197 52.4513 52.1602 52.5276 52.3318C52.6039 52.5033 52.6211 52.6959 52.5766 52.8786C52.5321 53.0613 52.4283 53.2234 52.2821 53.3391C52.1358 53.4548 51.9555 53.5173 51.77 53.5164Z" fill="#1C3F39"/>
<path d="M53.8704 23.7197C53.216 23.7197 52.5762 23.5227 52.0321 23.1538C51.488 22.7848 51.0638 22.2604 50.8134 21.6468C50.563 21.0333 50.4974 20.3581 50.6251 19.7067C50.7528 19.0554 51.0679 18.457 51.5307 17.9874C51.9934 17.5178 52.583 17.198 53.2249 17.0684C53.8668 16.9389 54.5321 17.0054 55.1367 17.2595C55.7413 17.5137 56.2581 17.944 56.6217 18.4962C56.9853 19.0484 57.1793 19.6977 57.1793 20.3618C57.1793 21.2524 56.8307 22.1065 56.2102 22.7362C55.5896 23.3659 54.748 23.7197 53.8704 23.7197ZM53.8704 18.6829C53.5432 18.6829 53.2233 18.7814 52.9513 18.9658C52.6792 19.1503 52.4671 19.4125 52.3419 19.7193C52.2167 20.0261 52.1839 20.3636 52.2478 20.6893C52.3116 21.015 52.4692 21.3142 52.7006 21.549C52.9319 21.7838 53.2267 21.9437 53.5477 22.0085C53.8686 22.0733 54.2013 22.04 54.5036 21.9129C54.8059 21.7859 55.0643 21.5707 55.2461 21.2946C55.4279 21.0185 55.5249 20.6939 55.5249 20.3618C55.5249 19.9165 55.3506 19.4895 55.0403 19.1746C54.73 18.8598 54.3092 18.6829 53.8704 18.6829Z" fill="#1C3F39"/>
</svg>
