<svg width="36" height="36" viewBox="0 0 36 36" fill="none" xmlns="http://www.w3.org/2000/svg">
<path d="M27.5398 36.0004H0.514422C0.386277 36.0004 0.26338 35.9496 0.172767 35.8592C0.0821551 35.7688 0.03125 35.6461 0.03125 35.5183V8.49779C0.03125 8.36991 0.0821551 8.24727 0.172767 8.15685C0.26338 8.06642 0.386277 8.01562 0.514422 8.01562H27.5398C27.668 8.01562 27.7909 8.06642 27.8815 8.15685C27.9721 8.24727 28.023 8.36991 28.023 8.49779V35.5183C28.023 35.6461 27.9721 35.7688 27.8815 35.8592C27.7909 35.9496 27.668 36.0004 27.5398 36.0004ZM0.997594 35.0361H27.0567V8.97674H0.997594V35.0361Z" fill="#F1F45D"/>
<path d="M35.0361 28.0009H8.0107C7.88256 28.0009 7.75966 27.9501 7.66905 27.8596C7.57844 27.7692 7.52753 27.6466 7.52753 27.5187V18.2194C7.52753 18.0915 7.57844 17.9688 7.66905 17.8784C7.75966 17.788 7.88256 17.7372 8.0107 17.7372H14.8911C15.0192 17.7372 15.1421 17.788 15.2327 17.8784C15.3233 17.9688 15.3742 18.0915 15.3742 18.2194C15.3742 18.3472 15.3233 18.4699 15.2327 18.5603C15.1421 18.6507 15.0192 18.7015 14.8911 18.7015H8.49387V27.0365H34.5401V0.964328H8.48099V8.5568C8.48099 8.68468 8.43008 8.80732 8.33947 8.89774C8.24886 8.98817 8.12597 9.03897 7.99782 9.03897C7.86968 9.03897 7.74678 8.98817 7.65616 8.89774C7.56555 8.80732 7.51465 8.68468 7.51465 8.5568V0.482164C7.51465 0.354286 7.56555 0.231645 7.65616 0.141222C7.74678 0.0507989 7.86968 0 7.99782 0H35.0232C35.1514 0 35.2743 0.0507989 35.3649 0.141222C35.4555 0.231645 35.5064 0.354286 35.5064 0.482164V27.5058C35.509 27.6335 35.4611 27.757 35.3731 27.8497C35.2851 27.9423 35.164 27.9967 35.0361 28.0009Z" fill="#F1F45D"/>
<path d="M18.2006 19.6577C17.8972 19.6583 17.6004 19.5691 17.3478 19.4014C17.0953 19.2336 16.8982 18.9949 16.7817 18.7154C16.6652 18.4358 16.6343 18.1281 16.6931 17.8311C16.7519 17.5341 16.8977 17.2611 17.112 17.0468C17.3263 16.8325 17.5995 16.6865 17.897 16.6272C18.1945 16.5679 18.503 16.598 18.7833 16.7137C19.0637 16.8294 19.3034 17.0255 19.472 17.2772C19.6406 17.5289 19.7306 17.8248 19.7306 18.1276C19.7306 18.5328 19.5695 18.9215 19.2827 19.2084C18.9958 19.4952 18.6066 19.6568 18.2006 19.6577ZM18.2006 17.5651C18.0882 17.5644 17.9781 17.5972 17.8844 17.6591C17.7907 17.721 17.7175 17.8093 17.6742 17.9128C17.6309 18.0163 17.6194 18.1303 17.6412 18.2404C17.6629 18.3504 17.717 18.4515 17.7965 18.5308C17.8759 18.6102 17.9773 18.6641 18.0875 18.6858C18.1978 18.7076 18.3121 18.6961 18.4158 18.6529C18.5195 18.6096 18.608 18.5366 18.6701 18.4431C18.7321 18.3496 18.7649 18.2398 18.7643 18.1276C18.7634 17.9787 18.7037 17.8361 18.5982 17.7308C18.4927 17.6255 18.3498 17.5659 18.2006 17.5651Z" fill="#F1F45D"/>
</svg>
