<svg width="45" height="44" viewBox="0 0 45 44" fill="none" xmlns="http://www.w3.org/2000/svg">
<path d="M22.6436 41.25C25.911 41.25 29.1231 40.3936 31.9685 38.7636C34.8139 37.1336 37.1961 34.7855 38.8844 31.9466C40.5727 29.1078 41.5098 25.8745 41.6049 22.5601C41.6999 19.2457 40.9497 15.9626 39.427 13.0289C39.342 12.8693 39.1983 12.7502 39.0271 12.6976C38.856 12.6451 38.6713 12.6633 38.5133 12.7484C38.3554 12.8335 38.237 12.9784 38.1839 13.1517C38.1309 13.325 38.1475 13.5126 38.2301 13.6735C39.5639 16.2401 40.26 19.0984 40.2579 22C39.2925 45.7099 5.99451 45.7101 5.02928 21.9999C4.86614 8.74375 19.3919 -0.141388 30.8488 6.18304C31.0076 6.2685 31.1933 6.28645 31.3651 6.23297C31.5369 6.17948 31.6807 6.05893 31.7649 5.89784C31.8491 5.73674 31.8668 5.5483 31.8141 5.37397C31.7614 5.19963 31.6426 5.05368 31.4839 4.96823C28.759 3.50954 25.7244 2.74808 22.6436 2.75C-2.51807 3.80501 -2.51778 40.1955 22.6436 41.25Z" fill="black"/>
<path d="M22.644 16.5C23.2306 16.4996 23.8132 16.5984 24.3678 16.7924C24.5376 16.8517 24.7238 16.8402 24.8852 16.7603C25.0467 16.6804 25.1703 16.5387 25.2289 16.3664C25.5265 15.1502 23.4164 15.1987 22.6441 15.1249C13.6575 15.5018 13.6579 28.4985 22.6441 28.875C24.4402 28.8729 26.1622 28.148 27.4323 26.8591C28.7023 25.5702 29.4167 23.8227 29.4187 22C29.3495 21.2019 29.3953 19.083 28.2021 19.3839C28.118 19.4132 28.0404 19.4591 27.9737 19.5189C27.9071 19.5788 27.8527 19.6513 27.8137 19.7325C27.7747 19.8136 27.7519 19.9018 27.7465 19.9919C27.7411 20.0821 27.7532 20.1724 27.7823 20.2577C27.9708 20.8186 28.0659 21.4074 28.0638 22C27.7921 29.2852 17.4958 29.2854 17.2242 21.9999C17.2259 20.5417 17.7974 19.1438 18.8135 18.1127C19.8295 17.0816 21.2071 16.5016 22.644 16.5Z" fill="black"/>
<path d="M29.1309 11.5052C29.174 11.4263 29.2014 11.3395 29.2115 11.2498C29.2216 11.1601 29.2142 11.0692 29.1897 10.9824C29.1652 10.8956 29.124 10.8146 29.0687 10.744C29.0133 10.6733 28.9447 10.6144 28.8669 10.5706C26.9622 9.50079 24.8212 8.93887 22.6443 8.9375C5.57028 9.65362 5.5705 34.3467 22.6443 35.0625C24.8835 35.0638 27.0842 34.472 29.0289 33.3456C30.9736 32.2192 32.5948 30.5973 33.7324 28.6401C34.87 26.6829 35.4844 24.4582 35.5151 22.1862C35.5457 19.9141 34.9914 17.6733 33.9069 15.6852C33.864 15.6059 33.806 15.536 33.7364 15.4794C33.6668 15.4229 33.5868 15.3809 33.5011 15.3557C33.4154 15.3306 33.3257 15.3229 33.2371 15.3331C33.1485 15.3433 33.0627 15.3711 32.9847 15.415C32.9067 15.4589 32.838 15.518 32.7826 15.5888C32.7271 15.6597 32.686 15.741 32.6616 15.8281C32.6372 15.9152 32.63 16.0062 32.6403 16.0961C32.6507 16.186 32.6785 16.273 32.722 16.3519C37.0162 23.9095 31.2476 33.8389 22.6441 33.6874C19.5906 33.6839 16.6632 32.4515 14.5041 30.2604C12.345 28.0693 11.1306 25.0986 11.1272 22C10.9796 13.2694 20.7616 7.41474 28.21 11.7733C28.2878 11.8172 28.3734 11.8451 28.4618 11.8554C28.5502 11.8657 28.6398 11.8582 28.7253 11.8333C28.8109 11.8084 28.8907 11.7666 28.9603 11.7103C29.0299 11.654 29.0879 11.5843 29.1309 11.5052Z" fill="black"/>
<path d="M30.4514 9.55512L30.7002 12.8526L22.1652 21.5139C22.0425 21.6437 21.9748 21.8171 21.9766 21.997C21.9784 22.1769 22.0497 22.3489 22.175 22.4761C22.3004 22.6033 22.4699 22.6756 22.6472 22.6775C22.8244 22.6793 22.9953 22.6106 23.1232 22.486L31.6582 13.8248L34.9075 14.0772C35.0049 14.0848 35.1028 14.0709 35.1943 14.0365C35.2859 14.0021 35.3691 13.948 35.4381 13.8779L40.369 8.87436C40.4587 8.78061 40.5205 8.663 40.5471 8.53513C40.5737 8.40726 40.5641 8.27436 40.5194 8.1518C40.4746 8.02924 40.3967 7.92203 40.2944 7.84258C40.1922 7.76312 40.0698 7.71466 39.9416 7.70281L36.9611 7.47117L36.7329 4.44654C36.7211 4.31642 36.6733 4.19233 36.595 4.08861C36.5167 3.9849 36.4111 3.90579 36.2903 3.86043C36.1696 3.81508 36.0386 3.80532 35.9127 3.8323C35.7867 3.85928 35.6708 3.92188 35.5784 4.01288L30.6479 9.01667C30.5787 9.0867 30.5254 9.17109 30.4915 9.26404C30.4575 9.35699 30.4439 9.4563 30.4514 9.55512ZM35.4944 6.04243C35.7655 9.24411 35.2319 8.68051 38.369 8.95958L34.7005 12.6821L32.0306 12.4746L31.8262 9.76525L35.4944 6.04243Z" fill="black"/>
</svg>
