<svg width="44" height="44" viewBox="0 0 44 44" fill="none" xmlns="http://www.w3.org/2000/svg">
<path d="M38.1847 13.75V9.625C38.1847 9.26033 38.0419 8.91059 37.7878 8.65273C37.5337 8.39487 37.1891 8.25 36.8298 8.25H7.0209C6.66154 8.25 6.31691 8.39487 6.06281 8.65273C5.8087 8.91059 5.66595 9.26033 5.66595 9.625V27.5C4.94724 27.5 4.25797 27.7897 3.74976 28.3055C3.24156 28.8212 2.95605 29.5207 2.95605 30.25V31.625C2.95605 32.719 3.38431 33.7682 4.14662 34.5418C4.90893 35.3154 5.94283 35.75 7.0209 35.75H38.1847C38.9034 35.75 39.5927 35.4603 40.1009 34.9445C40.6091 34.4288 40.8946 33.7293 40.8946 33V16.5C40.8946 15.7707 40.6091 15.0712 40.1009 14.5555C39.5927 14.0397 38.9034 13.75 38.1847 13.75ZM8.37585 11H35.4748V13.75H28.7001C27.9814 13.75 27.2921 14.0397 26.7839 14.5555C26.2757 15.0712 25.9902 15.7707 25.9902 16.5V28.3113L25.4346 28.875H18.416L17.4675 27.8988C17.3409 27.7713 17.1908 27.6705 17.0257 27.6021C16.8606 27.5336 16.6839 27.499 16.5055 27.5H8.37585V11ZM7.0209 33C6.66154 33 6.31691 32.8551 6.06281 32.5973C5.8087 32.3394 5.66595 31.9897 5.66595 31.625V30.25H15.95L16.8985 31.2262C17.0251 31.3537 17.1752 31.4545 17.3403 31.5229C17.5054 31.5914 17.6822 31.626 17.8605 31.625H25.9902V33H7.0209ZM38.1847 33H28.7001V16.5H38.1847V33Z" fill="black"/>
<path d="M34.1201 28.875H32.7651C32.4057 28.875 32.0611 29.0199 31.807 29.2777C31.5529 29.5356 31.4102 29.8853 31.4102 30.25C31.4102 30.6147 31.5529 30.9644 31.807 31.2223C32.0611 31.4801 32.4057 31.625 32.7651 31.625H34.1201C34.4794 31.625 34.824 31.4801 35.0781 31.2223C35.3322 30.9644 35.475 30.6147 35.475 30.25C35.475 29.8853 35.3322 29.5356 35.0781 29.2777C34.824 29.0199 34.4794 28.875 34.1201 28.875Z" fill="black"/>
</svg>
