<svg width="40" height="40" viewBox="0 0 40 40" fill="none" xmlns="http://www.w3.org/2000/svg">
<path d="M20.0004 15.8352C17.7039 15.8352 15.8355 17.7035 15.8355 20C15.8355 22.2965 17.7039 24.1648 20.0004 24.1648C22.2969 24.1648 24.1652 22.2965 24.1652 20C24.1652 17.7035 22.2969 15.8352 20.0004 15.8352ZM20.0004 22.9148C18.3931 22.9148 17.0855 21.6073 17.0855 20C17.0855 18.3927 18.3931 17.0852 20.0004 17.0852C21.6077 17.0852 22.9152 18.3927 22.9152 20C22.9152 21.6073 21.6077 22.9148 20.0004 22.9148ZM28.9153 18.3829L26.746 17.937C26.6141 17.505 26.4412 17.0874 26.229 16.6889L27.4477 14.8396C27.6109 14.5919 27.5775 14.2635 27.3677 14.0538L25.9466 12.6327C25.7368 12.4228 25.4084 12.3895 25.1608 12.5527L23.3115 13.7714C22.9129 13.5592 22.4954 13.3862 22.0634 13.2545L21.6175 11.0851C21.5577 10.7945 21.302 10.5859 21.0053 10.5859H18.9955C18.6988 10.5859 18.443 10.7945 18.3833 11.0851L17.9373 13.2545C17.5054 13.3862 17.0878 13.5592 16.6893 13.7714L14.84 12.5527C14.5923 12.3895 14.2639 12.4229 14.0541 12.6327L12.633 14.0538C12.4233 14.2635 12.3898 14.5919 12.5531 14.8396L13.7718 16.6889C13.5595 17.0875 13.3866 17.505 13.2548 17.9369L11.0855 18.3828C10.7948 18.4426 10.5863 18.6984 10.5863 18.995V21.0048C10.5863 21.3015 10.7948 21.5573 11.0855 21.617L13.2548 22.063C13.3866 22.4949 13.5595 22.9125 13.7717 23.311L12.553 25.1603C12.3898 25.408 12.4232 25.7364 12.633 25.9462L14.0541 27.3673C14.2639 27.577 14.5923 27.6104 14.8399 27.4472L16.6892 26.2285C17.0878 26.4407 17.5053 26.6137 17.9372 26.7455L18.3831 28.9148C18.4429 29.2055 18.6987 29.414 18.9953 29.414H21.0052C21.3018 29.414 21.5576 29.2055 21.6173 28.9148L22.0633 26.7455C22.4952 26.6137 22.9128 26.4407 23.3113 26.2285L25.1606 27.4472C25.4083 27.6104 25.7367 27.577 25.9465 27.3673L27.3676 25.9462C27.5773 25.7364 27.6108 25.408 27.4475 25.1603L26.2288 23.311C26.441 22.9125 26.614 22.4949 26.7459 22.063L28.9152 21.6171C29.2058 21.5573 29.4143 21.3016 29.4143 21.0049V18.9951C29.4145 18.6984 29.2059 18.4427 28.9153 18.3829ZM28.1645 20.4953L26.1191 20.9158C25.8824 20.9645 25.695 21.1452 25.6377 21.3798C25.4973 21.9555 25.27 22.5041 24.9623 23.0103C24.8367 23.2168 24.8415 23.4772 24.9744 23.6789L26.1234 25.4226L25.423 26.123L23.6793 24.974C23.4776 24.841 23.2172 24.8362 23.0106 24.9619C22.5045 25.2696 21.956 25.4969 21.3802 25.6373C21.1455 25.6945 20.9648 25.882 20.9162 26.1187L20.4957 28.1641H19.5051L19.0846 26.1187C19.0359 25.882 18.8552 25.6945 18.6205 25.6373C18.0449 25.497 17.4963 25.2697 16.9901 24.9619C16.7837 24.8364 16.5233 24.841 16.3215 24.974L14.5778 26.123L13.8773 25.4226L15.0264 23.6789C15.1594 23.4771 15.1641 23.2167 15.0385 23.0102C14.7308 22.5041 14.5035 21.9556 14.363 21.3798C14.3059 21.1452 14.1184 20.9644 13.8817 20.9158L11.8363 20.4953V19.5047L13.8817 19.0842C14.1184 19.0355 14.3059 18.8548 14.363 18.6202C14.5034 18.0446 14.7307 17.496 15.0385 16.9897C15.164 16.7832 15.1593 16.5229 15.0263 16.3211L13.8773 14.5774L14.5777 13.877L16.3214 15.026C16.5232 15.159 16.7835 15.1638 16.9901 15.0381C17.4962 14.7304 18.0447 14.5031 18.6205 14.3627C18.8552 14.3055 19.0359 14.118 19.0845 13.8813L19.505 11.8359H20.4956L20.9161 13.8813C20.9648 14.118 21.1455 14.3055 21.3802 14.3627C21.9559 14.503 22.5045 14.7303 23.0106 15.0381C23.2171 15.1637 23.4774 15.1589 23.6792 15.026L25.4229 13.877L26.1234 14.5774L24.9743 16.3211C24.8413 16.5229 24.8366 16.7833 24.9622 16.9898C25.2699 17.4959 25.4972 18.0444 25.6377 18.6202C25.6949 18.8549 25.8823 19.0356 26.119 19.0842L28.1644 19.5047V20.4953H28.1645ZM34.4724 24.6676V15.3324C36.0417 15.0382 37.2332 13.6588 37.2332 12.0054C37.2332 10.1384 35.7144 8.61953 33.8474 8.61953C32.8216 8.61953 31.9016 9.07867 31.2802 9.80156L23.1942 5.13313C23.318 4.78164 23.3863 4.40414 23.3863 4.01086C23.3863 2.14383 21.8673 0.625 20.0004 0.625C18.1334 0.625 16.6145 2.14383 16.6145 4.01078C16.6145 4.40406 16.6827 4.78164 16.8066 5.13305L8.72055 9.80156C8.09914 9.07875 7.17914 8.61953 6.15336 8.61953C4.28648 8.61953 2.76758 10.1384 2.76758 12.0054C2.76758 13.6588 3.95914 15.0382 5.52836 15.3324V24.6676C3.95914 24.9617 2.76758 26.3412 2.76758 27.9945C2.76758 29.8615 4.28641 31.3804 6.15336 31.3804C7.17914 31.3804 8.09914 30.9213 8.72055 30.1984L16.8066 34.8669C16.6827 35.2184 16.6145 35.5959 16.6145 35.9891C16.6145 37.8561 18.1334 39.375 20.0004 39.375C21.8673 39.375 23.3863 37.8561 23.3863 35.9891C23.3863 35.5959 23.3181 35.2184 23.1942 34.8669L31.2802 30.1984C31.9016 30.9212 32.8216 31.3804 33.8474 31.3804C35.7144 31.3804 37.2332 29.8615 37.2332 27.9945C37.2332 26.3412 36.0416 24.9617 34.4724 24.6676ZM33.8474 9.86961C35.0251 9.86961 35.9832 10.8277 35.9832 12.0055C35.9832 13.1831 35.0251 14.1412 33.8474 14.1412C32.6697 14.1412 31.7116 13.1831 31.7116 12.0055C31.7116 10.8277 32.6697 9.86961 33.8474 9.86961ZM20.0004 1.875C21.1781 1.875 22.1362 2.83313 22.1362 4.01078C22.1362 5.18844 21.1781 6.14664 20.0004 6.14664C18.8227 6.14664 17.8645 5.18852 17.8645 4.01078C17.8645 2.83305 18.8227 1.875 20.0004 1.875ZM4.01758 12.0054C4.01758 10.8277 4.9757 9.86953 6.15336 9.86953C7.33109 9.86953 8.28922 10.8277 8.28922 12.0054C8.28922 13.183 7.33109 14.1412 6.15336 14.1412C4.9757 14.1413 4.01758 13.1831 4.01758 12.0054ZM6.15336 30.1304C4.9757 30.1304 4.01758 29.1723 4.01758 27.9945C4.01758 26.8169 4.9757 25.8588 6.15336 25.8588C7.33109 25.8588 8.28922 26.8169 8.28922 27.9945C8.28922 29.1723 7.33109 30.1304 6.15336 30.1304ZM20.0004 38.125C18.8227 38.125 17.8645 37.1669 17.8645 35.9891C17.8645 34.8114 18.8227 33.8534 20.0004 33.8534C21.1781 33.8534 22.1362 34.8115 22.1362 35.9891C22.1362 37.1668 21.1781 38.125 20.0004 38.125ZM22.5676 33.7853C21.9462 33.0625 21.0262 32.6034 20.0004 32.6034C18.9746 32.6034 18.0546 33.0625 17.4332 33.7853L9.34719 29.1168C9.47102 28.7653 9.53922 28.3878 9.53922 27.9945C9.53922 26.3412 8.34766 24.9617 6.77836 24.6676V15.3324C8.34766 15.0382 9.53922 13.6588 9.53922 12.0054C9.53922 11.6121 9.47109 11.2346 9.34719 10.8831L17.4332 6.21469C18.0546 6.9375 18.9746 7.39664 20.0004 7.39664C21.0262 7.39664 21.9462 6.9375 22.5676 6.21469L30.6536 10.8831C30.5298 11.2346 30.4616 11.6121 30.4616 12.0054C30.4616 13.6588 31.6531 15.0382 33.2223 15.3324V24.6675C31.653 24.9617 30.4616 26.3412 30.4616 27.9945C30.4616 28.3877 30.5297 28.7652 30.6536 29.1167L22.5676 33.7853ZM33.8474 30.1304C32.6697 30.1304 31.7116 29.1723 31.7116 27.9945C31.7116 26.8169 32.6698 25.8588 33.8474 25.8588C35.0251 25.8588 35.9832 26.8169 35.9832 27.9945C35.9832 29.1723 35.0251 30.1304 33.8474 30.1304Z" fill="black"/>
</svg>
