<svg width="83" height="60" viewBox="0 0 83 60" fill="none" xmlns="http://www.w3.org/2000/svg">
<g opacity="0.1">
<mask id="path-1-inside-1_179_128" fill="white">
<path d="M17.625 0.375C27.3555 0.375 35.25 8.26953 35.25 18V35.625C35.25 48.6602 24.6016 59.125 11.75 59.125C8.44531 59.125 5.875 56.5547 5.875 53.25C5.875 50.1289 8.44531 47.375 11.75 47.375C18.1758 47.375 23.5 42.2344 23.5 35.625V34.707C21.4805 35.2578 19.6445 35.625 17.625 35.625C7.71094 35.625 0 27.9141 0 18C0 8.26953 7.71094 0.375 17.625 0.375ZM82.25 18V35.625C82.25 48.6602 71.6016 59.125 58.75 59.125C55.4453 59.125 52.875 56.5547 52.875 53.25C52.875 50.1289 55.4453 47.375 58.75 47.375C65.1758 47.375 70.5 42.2344 70.5 35.625V34.707C68.4805 35.2578 66.6445 35.625 64.625 35.625C54.7109 35.625 47 27.9141 47 18C47 8.26953 54.7109 0.375 64.625 0.375C74.3555 0.375 82.25 8.26953 82.25 18Z"/>
</mask>
<path d="M23.5 34.707H25.5V32.0885L22.9738 32.7775L23.5 34.707ZM70.5 34.707H72.5V32.0885L69.9738 32.7775L70.5 34.707ZM17.625 2.375C26.2509 2.375 33.25 9.3741 33.25 18H37.25C37.25 7.16496 28.46 -1.625 17.625 -1.625V2.375ZM33.25 18V35.625H37.25V18H33.25ZM33.25 35.625C33.25 47.5454 23.5072 57.125 11.75 57.125V61.125C25.696 61.125 37.25 49.7749 37.25 35.625H33.25ZM11.75 57.125C9.54988 57.125 7.875 55.4501 7.875 53.25H3.875C3.875 57.6593 7.34074 61.125 11.75 61.125V57.125ZM7.875 53.25C7.875 51.1927 9.59021 49.375 11.75 49.375V45.375C7.30041 45.375 3.875 49.0651 3.875 53.25H7.875ZM11.75 49.375C19.2599 49.375 25.5 43.3593 25.5 35.625H21.5C21.5 41.1095 17.0917 45.375 11.75 45.375V49.375ZM25.5 35.625V34.707H21.5V35.625H25.5ZM22.9738 32.7775C21.0327 33.3069 19.3909 33.625 17.625 33.625V37.625C19.8981 37.625 21.9282 37.2087 24.0262 36.6366L22.9738 32.7775ZM17.625 33.625C8.81551 33.625 2 26.8095 2 18H-2C-2 29.0186 6.60637 37.625 17.625 37.625V33.625ZM2 18C2 9.36046 8.8291 2.375 17.625 2.375V-1.625C6.59278 -1.625 -2 7.1786 -2 18H2ZM80.25 18V35.625H84.25V18H80.25ZM80.25 35.625C80.25 47.5454 70.5072 57.125 58.75 57.125V61.125C72.696 61.125 84.25 49.7749 84.25 35.625H80.25ZM58.75 57.125C56.5499 57.125 54.875 55.4501 54.875 53.25H50.875C50.875 57.6593 54.3407 61.125 58.75 61.125V57.125ZM54.875 53.25C54.875 51.1927 56.5902 49.375 58.75 49.375V45.375C54.3004 45.375 50.875 49.0651 50.875 53.25H54.875ZM58.75 49.375C66.2599 49.375 72.5 43.3593 72.5 35.625H68.5C68.5 41.1095 64.0917 45.375 58.75 45.375V49.375ZM72.5 35.625V34.707H68.5V35.625H72.5ZM69.9738 32.7775C68.0327 33.3069 66.3909 33.625 64.625 33.625V37.625C66.8981 37.625 68.9282 37.2087 71.0262 36.6366L69.9738 32.7775ZM64.625 33.625C55.8155 33.625 49 26.8095 49 18H45C45 29.0186 53.6064 37.625 64.625 37.625V33.625ZM49 18C49 9.36046 55.8291 2.375 64.625 2.375V-1.625C53.5928 -1.625 45 7.1786 45 18H49ZM64.625 2.375C73.2509 2.375 80.25 9.3741 80.25 18H84.25C84.25 7.16496 75.46 -1.625 64.625 -1.625V2.375Z" fill="black" mask="url(#path-1-inside-1_179_128)"/>
</g>
</svg>
