<svg width="37" height="36" viewBox="0 0 37 36" fill="none" xmlns="http://www.w3.org/2000/svg">
<g clip-path="url(#clip0_179_156)">
<path d="M33.2821 9.26947C33.2639 8.29752 33.2465 7.37933 33.2465 6.49105C33.2465 5.79514 32.6907 5.23095 32.0048 5.23095C26.6944 5.23095 22.6512 3.68222 19.281 0.356917C18.7989 -0.118894 18.0317 -0.118726 17.5498 0.356917C14.1799 3.68222 10.1374 5.23095 4.8273 5.23095C4.14155 5.23095 3.58559 5.79514 3.58559 6.49105C3.58559 7.3795 3.56837 8.29802 3.54999 9.27014C3.37979 18.3153 3.14668 30.703 18.0087 35.9307C18.1405 35.977 18.2779 36.0002 18.4153 36.0002C18.5527 36.0002 18.6903 35.977 18.8219 35.9307C33.6851 30.7028 33.4523 18.3147 33.2821 9.26947ZM18.4155 33.4029C5.66935 28.7041 5.86207 18.4108 6.03309 9.31819C6.04336 8.77249 6.05329 8.24358 6.06025 7.7251C11.0337 7.51206 15.0109 5.98264 18.4155 2.97287C21.8204 5.98264 25.7982 7.51223 30.772 7.7251C30.779 8.24342 30.7889 8.77198 30.7992 9.31735C30.9701 18.4103 31.1626 28.704 18.4155 33.4029Z" fill="black"/>
<path d="M22.6918 13.6228L16.6986 19.7043L14.1411 17.109C13.6562 16.6171 12.8699 16.6171 12.3852 17.109C11.9003 17.6013 11.9003 18.399 12.3852 18.8911L15.8206 22.3774C16.063 22.6234 16.3809 22.7464 16.6986 22.7464C17.0163 22.7464 17.3342 22.6234 17.5765 22.3774L24.4475 15.4049C24.9326 14.9128 24.9326 14.1149 24.4477 13.6229C23.9629 13.1308 23.1767 13.1307 22.6918 13.6228Z" fill="black"/>
</g>
<defs>
<clipPath id="clip0_179_156">
<rect width="35.475" height="36" fill="white" transform="translate(0.678711)"/>
</clipPath>
</defs>
</svg>
