<svg width="58" height="50" viewBox="0 0 58 50" fill="none" xmlns="http://www.w3.org/2000/svg">
<path d="M56.8181 49.94C56.5555 49.9366 56.3044 49.8322 56.1175 49.6487C55.9305 49.4652 55.8222 49.2169 55.8152 48.9557V3.23122L26.4851 28.0554C26.302 28.2116 26.0689 28.2974 25.8277 28.2974C25.5866 28.2974 25.3535 28.2116 25.1704 28.0554L0.678973 7.3034C0.473179 7.12995 0.345041 6.88229 0.322801 6.61487C0.30056 6.34746 0.386046 6.0822 0.560387 5.87746C0.734727 5.67273 0.983667 5.54529 1.25246 5.52316C1.52126 5.50103 1.78788 5.58604 1.99368 5.75949L25.8277 25.9856L56.154 0.284962C56.3027 0.159331 56.4845 0.0786197 56.6778 0.0523402C56.8711 0.0260607 57.0679 0.0553277 57.2451 0.136657C57.4215 0.21698 57.571 0.346166 57.6755 0.508777C57.7801 0.671388 57.8353 0.860527 57.8347 1.05356V48.922C57.8356 49.0553 57.8099 49.1876 57.7593 49.311C57.7086 49.4345 57.6338 49.5468 57.5393 49.6414C57.4448 49.7361 57.3325 49.8111 57.2087 49.8624C57.0849 49.9136 56.9522 49.94 56.8181 49.94Z" fill="#1C3F39"/>
</svg>
