<svg width="65" height="63" viewBox="0 0 65 63" fill="none" xmlns="http://www.w3.org/2000/svg">
<path d="M1.82316 62.0937C1.55357 62.0937 1.295 61.9872 1.10437 61.7975C0.913732 61.6079 0.806641 61.3506 0.806641 61.0824V1.01096C0.807625 0.818283 0.863546 0.629802 0.967913 0.467492C1.07228 0.305181 1.2208 0.175677 1.39622 0.0940135C1.57216 0.0124341 1.76802 -0.0169383 1.96032 0.00936778C2.15263 0.0356739 2.33321 0.116565 2.4805 0.24236L32.8136 25.943L63.1534 0.276061C63.2548 0.187524 63.3728 0.119739 63.5006 0.0765658C63.6284 0.0333931 63.7635 0.0156639 63.8982 0.0244287C64.0328 0.0331935 64.1644 0.0682652 64.2855 0.127633C64.4065 0.187001 64.5146 0.269527 64.6036 0.37046C64.6926 0.471393 64.7608 0.588783 64.8042 0.715915C64.8476 0.843046 64.8653 0.977432 64.8565 1.11141C64.8477 1.24538 64.8125 1.37631 64.7528 1.49674C64.6932 1.61716 64.6102 1.72473 64.5088 1.81326L33.5184 28.1072C33.3353 28.2633 33.1021 28.3492 32.861 28.3492C32.6199 28.3492 32.3867 28.2633 32.2037 28.1072L2.88713 3.26277V61.1431C2.87138 61.409 2.75081 61.658 2.5516 61.836C2.35238 62.014 2.09061 62.1066 1.82316 62.0937Z" fill="#1C3F39"/>
</svg>
