<svg width="10" height="9" viewBox="0 0 10 9" fill="none" xmlns="http://www.w3.org/2000/svg">
<path d="M4.97429 9.00059C4.1701 9.00059 3.38395 8.76335 2.71528 8.31885C2.04662 7.87436 1.52547 7.24256 1.21772 6.5034C0.909963 5.76423 0.829443 4.95089 0.986334 4.16619C1.14323 3.3815 1.53045 2.66072 2.09911 2.09499C2.66776 1.52925 3.3923 1.14397 4.18104 0.987886C4.96979 0.831801 5.78732 0.911907 6.53031 1.21808C7.27329 1.52425 7.90835 2.04273 8.35513 2.70796C8.80192 3.37319 9.04039 4.1553 9.04039 4.95537C9.04039 6.02823 8.61198 7.05713 7.84944 7.81575C7.0869 8.57438 6.05269 9.00059 4.97429 9.00059ZM4.97429 2.93276C4.57219 2.93276 4.1791 3.0514 3.84477 3.27365C3.51044 3.4959 3.24986 3.81175 3.09598 4.18134C2.94211 4.55092 2.90185 4.95761 2.98029 5.34996C3.05874 5.74231 3.25237 6.10272 3.5367 6.38558C3.82103 6.66845 4.1833 6.86109 4.57767 6.93913C4.97204 7.01718 5.38079 6.97712 5.75228 6.82404C6.12377 6.67095 6.4413 6.41167 6.66469 6.07906C6.88809 5.74644 7.00734 5.3554 7.00734 4.95537C7.00734 4.41894 6.79311 3.90447 6.41184 3.52516C6.03057 3.14585 5.51349 2.93276 4.97429 2.93276Z" fill="#1C3F39"/>
</svg>
