<svg width="30" height="30" viewBox="0 0 30 30" fill="none" xmlns="http://www.w3.org/2000/svg">
<g clip-path="url(#clip0_179_147)">
<path d="M27.3187 0.0585938H2.95276C1.52007 0.0585938 0.354492 1.24143 0.354492 2.69531V27.3047C0.354492 28.7586 1.52007 29.9414 2.95276 29.9414H27.3187C28.7514 29.9414 29.917 28.7586 29.917 27.3047V2.69531C29.917 1.24143 28.7514 0.0585938 27.3187 0.0585938ZM2.95276 1.81641H27.3187C27.7963 1.81641 28.1848 2.21068 28.1848 2.69531V7.08984H2.08667V2.69531C2.08667 2.21068 2.4752 1.81641 2.95276 1.81641ZM27.3187 28.1836H2.95276C2.4752 28.1836 2.08667 27.7893 2.08667 27.3047V8.84766H28.1848V27.3047C28.1848 27.7893 27.7963 28.1836 27.3187 28.1836Z" fill="black"/>
<path d="M18.0749 11.5554C17.6353 11.3642 17.1261 11.5709 16.9377 12.017L11.7412 24.3217C11.5527 24.7678 11.7564 25.2846 12.196 25.4758C12.6358 25.667 13.1449 25.4602 13.3333 25.0142L18.5298 12.7095C18.7183 12.2633 18.5146 11.7466 18.0749 11.5554Z" fill="black"/>
<path d="M10.6158 14.451C10.3169 14.0719 9.7718 14.0105 9.39846 14.3137L5.06801 17.8294C4.63503 18.1807 4.63474 18.8503 5.06801 19.202L9.39846 22.7176C9.77197 23.0209 10.3171 22.9594 10.6158 22.5804C10.9146 22.2013 10.8541 21.6482 10.4805 21.345L6.99546 18.5157L10.4805 15.6864C10.8541 15.3831 10.9146 14.8301 10.6158 14.451Z" fill="black"/>
<path d="M25.2034 17.8293L20.873 14.3136C20.4994 14.0104 19.9544 14.0718 19.6556 14.4509C19.3568 14.8299 19.4174 15.383 19.7909 15.6862L23.276 18.5156L19.7909 21.3449C19.4174 21.6481 19.3568 22.2012 19.6556 22.5802C19.9549 22.9597 20.5 23.0204 20.873 22.7174L25.2034 19.2018C25.6364 18.8504 25.6367 18.1809 25.2034 17.8293Z" fill="black"/>
<path d="M4.74304 5.33203C5.22137 5.33203 5.60913 4.93853 5.60913 4.45312C5.60913 3.96772 5.22137 3.57422 4.74304 3.57422C4.26471 3.57422 3.87695 3.96772 3.87695 4.45312C3.87695 4.93853 4.26471 5.33203 4.74304 5.33203Z" fill="black"/>
<path d="M8.20691 5.33203C8.68524 5.33203 9.073 4.93853 9.073 4.45312C9.073 3.96772 8.68524 3.57422 8.20691 3.57422C7.72858 3.57422 7.34082 3.96772 7.34082 4.45312C7.34082 4.93853 7.72858 5.33203 8.20691 5.33203Z" fill="black"/>
<path d="M11.6718 5.33203C12.1501 5.33203 12.5378 4.93853 12.5378 4.45312C12.5378 3.96772 12.1501 3.57422 11.6718 3.57422C11.1934 3.57422 10.8057 3.96772 10.8057 4.45312C10.8057 4.93853 11.1934 5.33203 11.6718 5.33203Z" fill="black"/>
<path d="M20.3319 5.33203H25.5284C26.0068 5.33203 26.3945 4.93852 26.3945 4.45312C26.3945 3.96773 26.0068 3.57422 25.5284 3.57422H20.3319C19.8536 3.57422 19.4658 3.96773 19.4658 4.45312C19.4658 4.93852 19.8536 5.33203 20.3319 5.33203Z" fill="black"/>
</g>
<defs>
<clipPath id="clip0_179_147">
<rect width="29.5625" height="30" fill="white" transform="translate(0.354492)"/>
</clipPath>
</defs>
</svg>
